# xmcd
#
# Track frame offsets: 
#        150
#        70220
#        81104
#        103744
#        114500
#        157803
#        189609
#        199565
#        238696
#
# Disc length: 4109 seconds
#
# Revision: 0
# Processed by: cddbd v1.5.2PL0 Copyright (c) Steve Scherf et al.
# Submitted via: ExactAudioCopy v0.95a5
#
DISCID=6f100b09
DTITLE=姚炳炎 - 姚炳炎古琴艺术-CD3
DYEAR=2017
DGENRE=Folk
TTITLE0=胡笳十八拍
TTITLE1=酒狂
TTITLE2=楚歌
TTITLE3=华胥引
TTITLE4=孤馆遇仙
TTITLE5=阳春
TTITLE6=古怨
TTITLE7=潇湘水云
TTITLE8=广陵散
EXTD=
EXTT0=
EXTT1=
EXTT2=
EXTT3=
EXTT4=
EXTT5=
EXTT6=
EXTT7=
EXTT8=
PLAYORDER=
